<svg xmlns="http://www.w3.org/2000/svg" viewBox="0 0 100 100">
  <rect width="100" height="100" rx="20" fill="#0d1b2a"/>
  <g transform="translate(50,54)">
    <rect x="-5" y="8" width="10" height="28" rx="2" fill="#c9a84c"/>
    <path d="M-5,36 Q-14,42 -22,38 M5,36 Q14,42 22,38 M0,36 L0,44" fill="none" stroke="#c9a84c" stroke-width="2" stroke-linecap="round"/>
    <path d="M0,8 L0,-6 M0,-1 L-20,-18 M0,-1 L20,-18 M-20,-18 L-32,-32 M-20,-18 L-12,-34 M20,-18 L32,-32 M20,-18 L12,-34 M0,-6 L-8,-26 M0,-6 L8,-26" fill="none" stroke="#c9a84c" stroke-width="2" stroke-linecap="round"/>
    <circle cx="-32" cy="-37" r="7" fill="#c9a84c"/>
    <circle cx="-12" cy="-39" r="6" fill="#c9a84c" opacity="0.85"/>
    <circle cx="32" cy="-37" r="7" fill="#c9a84c"/>
    <circle cx="12" cy="-39" r="6" fill="#c9a84c" opacity="0.85"/>
    <circle cx="-8" cy="-31" r="5" fill="#c9a84c" opacity="0.9"/>
    <circle cx="8" cy="-31" r="5" fill="#c9a84c" opacity="0.9"/>
    <circle cx="0" cy="-46" r="8" fill="#c9a84c"/>
  </g>
</svg>
